<?xml version="1.0" encoding="UTF-8" standalone="no"?>
<svg
   xmlns:dc="http://purl.org/dc/elements/1.1/"
   xmlns:cc="http://creativecommons.org/ns#"
   xmlns:rdf="http://www.w3.org/1999/02/22-rdf-syntax-ns#"
   xmlns:svg="http://www.w3.org/2000/svg"
   xmlns="http://www.w3.org/2000/svg"
   xmlns:sodipodi="http://sodipodi.sourceforge.net/DTD/sodipodi-0.dtd"
   xmlns:inkscape="http://www.inkscape.org/namespaces/inkscape"
   width="1400"
   height="400"
   viewBox="0 0 1400 400"
   version="1.1"
   id="svg12"
   sodipodi:docname="icon.svg"
   inkscape:version="0.92.1 r15371"
   inkscape:export-xdpi="371.51334"
   inkscape:export-ydpi="371.51334"
   style="fill:none">
  <metadata
     id="metadata18">
    <rdf:RDF>
      <cc:Work
         rdf:about="">
        <dc:format>image/svg+xml</dc:format>
        <dc:type
           rdf:resource="http://purl.org/dc/dcmitype/StillImage" />
        <dc:title></dc:title>
      </cc:Work>
    </rdf:RDF>
  </metadata>
  <defs
     id="defs16" />
  <sodipodi:namedview
     pagecolor="#ffffff"
     bordercolor="#666666"
     borderopacity="1"
     objecttolerance="10"
     gridtolerance="10"
     guidetolerance="10"
     inkscape:pageopacity="0"
     inkscape:pageshadow="2"
     inkscape:window-width="1366"
     inkscape:window-height="705"
     id="namedview14"
     showgrid="false"
     inkscape:zoom="0.45269168"
     inkscape:cx="759.95487"
     inkscape:cy="146.23856"
     inkscape:window-x="-8"
     inkscape:window-y="-8"
     inkscape:window-maximized="1"
     inkscape:current-layer="svg12" />
  <text
     xml:space="preserve"
     style="font-style:normal;font-weight:normal;font-size:336.6395874px;line-height:125%;font-family:sans-serif;letter-spacing:0px;word-spacing:0px;fill:#000000;fill-opacity:1;stroke:none;stroke-width:8.41598988px;stroke-linecap:butt;stroke-linejoin:miter;stroke-opacity:1"
     x="477.20837"
     y="320.3187"
     id="text4535"
     transform="scale(0.97397633,1.026719)"><tspan
       sodipodi:role="line"
       id="tspan4533"
       x="477.20837"
       y="320.3187"
       style="font-style:normal;font-variant:normal;font-weight:900;font-stretch:normal;font-family:Mulish;-inkscape-font-specification:'Mulish Heavy';fill:#000000;fill-opacity:1;stroke-width:8.41598988px">XTON</tspan></text>
  <rect
     style="opacity:1;fill:#0088cc;fill-opacity:1;fill-rule:evenodd;stroke:#000000;stroke-width:30.95769119;stroke-linecap:round;stroke-linejoin:round;stroke-miterlimit:4;stroke-dasharray:none;stroke-opacity:1;paint-order:stroke fill markers"
     id="rect4529"
     width="364.17499"
     height="213.17868"
     x="38.200867"
     y="100.47031"
     ry="14.997544"
     inkscape:export-xdpi="734.04944"
     inkscape:export-ydpi="734.04944" />
  <rect
     style="opacity:1;fill:#ffffff;fill-opacity:1;fill-rule:evenodd;stroke:#000000;stroke-width:34.0465126;stroke-linecap:round;stroke-linejoin:round;stroke-miterlimit:4;stroke-dasharray:none;stroke-opacity:1;paint-order:stroke fill markers"
     id="rect4531"
     width="44.046425"
     height="34.073647"
     x="320.78137"
     y="246.32272"
     ry="9.1208601"
     inkscape:export-xdpi="734.04944"
     inkscape:export-ydpi="734.04944" />
  <path
     d="m 87.320582,122.85845 117.210258,-5.4e-4 c 4.14674,0 8.2906,0.607 12.62065,2.6285 5.19072,2.41826 7.94366,6.23306 9.87221,9.05405 0.16457,0.21532 0.28857,0.44686 0.41992,0.67625 2.26612,4.03758 3.43608,8.39381 3.43608,13.08222 0,4.45382 -1.05884,9.30669 -3.43608,13.53633 -0.0238,0.0541 -0.0411,0.0757 -0.0811,0.11145 l -74.05175,127.20366 c -1.63169,2.80573 -4.63864,4.52622 -7.88434,4.51464 -3.24652,-0.008 -6.23965,-1.755 -7.85221,-4.57068 L 64.883031,162.16148 c -0.0238,-0.008 -0.04003,-0.0757 -0.08115,-0.0757 -1.664383,-2.7394 -4.236497,-6.98007 -4.686414,-12.45109 -0.411916,-5.03129 0.716607,-10.07199 3.246567,-14.4424 2.529624,-4.37137 6.333128,-7.86569 10.910823,-10.00512 4.908083,-2.29459 9.881637,-2.31147 13.018609,-2.31147 z m 49.064568,18.17183 H 87.320582 c -3.221746,0 -4.460655,0.21424 -5.32581,0.60051 -1.19485,0.55723 -2.20008,1.47509 -2.871643,2.63672 -0.671596,1.15979 -0.976395,2.50894 -0.865058,3.85635 0.0844,0.77471 0.370693,1.6573 2.237161,4.72022 0.04003,0.0757 0.0844,0.11144 0.123347,0.21531 l 55.777981,97.39788 z m 18.1723,0 v 109.89073 l 57.06958,-98.03376 c 0.64249,-1.16975 1.07951,-2.86329 1.07951,-4.58821 0,-1.40108 -0.28835,-2.61628 -0.93939,-3.87312 -0.67971,-0.97921 -1.09595,-1.50095 -1.44193,-1.8539 -0.28846,-0.28997 -0.52748,-0.46309 -0.84883,-0.62107 -1.3513,-0.63188 -2.73154,-0.92835 -4.94312,-0.92835 z"
     id="path10"
     inkscape:connector-curvature="0"
     style="clip-rule:evenodd;fill:#ffffff;fill-rule:evenodd;stroke-width:7.46351242"
     inkscape:export-xdpi="734.04944"
     inkscape:export-ydpi="734.04944" />
</svg>
